<svg xmlns="http://www.w3.org/2000/svg" viewBox="0 0 13.012 12.986">
  <defs>
    <style>
      .cls-1 {
        fill: #2024e3;
      }
    </style>
  </defs>
  <path id="Path_5" data-name="Path 5" class="cls-1" d="M-2972.393,24.657a7.66,7.66,0,0,0,1.667-1.634,1.258,1.258,0,0,0,0-.974,5.7,5.7,0,0,1-.315-2.082.756.756,0,0,0-.8-.92c-.582.02-2.653,0-2.653,0a.694.694,0,0,0-.533.666,12.3,12.3,0,0,0,3.466,8.619A11.91,11.91,0,0,0-2962.52,32a.909.909,0,0,0,.5-.818c.024-.327,0-2.487,0-2.487a.76.76,0,0,0-.677-.58c-.561-.04-2.019.045-2.66-.437-.263-.243-.6.044-.814.247s-1.494,1.548-1.494,1.548S-2971.575,27.1-2972.393,24.657Z" transform="translate(2975.026 -19.045)"/>
</svg>
